{"asset":{"version":"2.0","generator":"babylon.js glTF exporter for 3ds max 2018 v1.4.2"},"scene":0,"scenes":[{"nodes":[0,1],"extensions":{}}],"nodes":[{"mesh":0,"translation":[0.0,0.0,0.0],"rotation":[0.0,0.0,0.0,1.0],"scale":[0.1,0.100000031,0.100000031],"name":"_46"},{"translation":[0.0,0.0,0.0],"rotation":[0.0,0.0,0.0,1.0],"scale":[1.0,1.0,1.0],"name":"Default light"}],"meshes":[{"primitives":[{"attributes":{"POSITION":1,"NORMAL":2,"COLOR_0":3,"TEXCOORD_0":4},"indices":0,"mode":4,"material":0}],"name":"_46"}],"accessors":[{"bufferView":0,"componentType":5123,"count":11736,"type":"SCALAR","name":"accessorIndices"},{"bufferView":1,"componentType":5126,"count":11736,"max":[5.69542456,9.28481,4.869464],"min":[-5.693061,-0.39992103,-4.863795],"type":"VEC3","name":"accessorPositions"},{"bufferView":1,"byteOffset":140832,"componentType":5126,"count":11736,"type":"VEC3","name":"accessorNormals"},{"bufferView":2,"componentType":5126,"count":11736,"type":"VEC4","name":"accessorColors"},{"bufferView":3,"componentType":5126,"count":11736,"type":"VEC2","name":"accessorUVs"}],"bufferViews":[{"buffer":0,"byteLength":23472,"name":"bufferViewScalar"},{"buffer":0,"byteOffset":23472,"byteLength":281664,"byteStride":12,"name":"bufferViewFloatVec3"},{"buffer":0,"byteOffset":305136,"byteLength":187776,"byteStride":16,"name":"bufferViewFloatVec4"},{"buffer":0,"byteOffset":492912,"byteLength":93888,"byteStride":8,"name":"bufferViewFloatVec2"}],"buffers":[{"uri":"lt01arbor.bin","byteLength":586800}],"materials":[{"pbrMetallicRoughness":{"baseColorFactor":[0.5,0.5,0.5,1.0],"baseColorTexture":{"index":0,"texCoord":0},"metallicFactor":0.0,"roughnessFactor":0.7022211},"emissiveFactor":[0.0,0.0,0.0],"alphaMode":"OPAQUE","name":"House_004_Material_BaseColor"}],"textures":[{"sampler":0,"source":0,"name":"House_004_Material_BaseColor.png"}],"images":[{"uri":"House_004_Material_BaseColor.png"}],"samplers":[{"magFilter":9729,"minFilter":9987,"wrapS":10497,"wrapT":10497}]}