{"asset":{"version":"2.0","generator":"babylon.js glTF exporter for 3ds max 2018 v1.4.2"},"scene":0,"scenes":[{"nodes":[0,8,9],"extensions":{}}],"nodes":[{"children":[1,2,3,4,5,6,7],"translation":[0.0,0.0,0.0],"rotation":[0.7071068,0.0,0.0,0.7071067],"scale":[1.0,1.0,0.5],"name":"landxwater"},{"translation":[0.793910265,1.01420665,-0.7393293],"rotation":[-0.631706536,-0.04121958,-0.04421875,0.772847056],"scale":[1.019492,1.62579167,1.040987],"name":"Line"},{"translation":[-0.503348053,0.674,-0.8575582],"rotation":[-0.57397306,-0.295515448,0.304218441,0.7004832],"scale":[1.03087449,1.31131554,1.058284],"name":"Line_1"},{"translation":[1.1508,1.2799,-2.54499984],"rotation":[0.0,0.0,-0.2101585,0.9776674],"scale":[0.0166895147,0.0166895147,0.03337903],"name":"name01"},{"translation":[-0.539208055,0.9309999,-2.339],"rotation":[0.08204184,0.008548181,0.214875609,0.973151863],"scale":[0.0166953,0.0171348564,0.0329278968],"name":"name02"},{"translation":[1.7486,3.15999985,-3.0],"rotation":[0.0,0.0,0.0,1.0],"scale":[0.07685369,0.07685369,0.153707385],"name":"New_Text__1_"},{"mesh":0,"translation":[-0.12999998,-0.48,-0.233999953],"rotation":[6.062612E-08,-2.02156971E-05,-0.0256475061,0.9996711],"scale":[0.5718553,0.372077376,0.63922143],"name":"Plane"},{"mesh":1,"translation":[0.0,0.0,-0.530692041],"rotation":[0.0,0.0,0.0,1.0],"scale":[1.0,1.0,1.0],"name":"Relief"},{"translation":[5.94585133,-0.5760996,-1.98720121],"rotation":[0.06867637,0.00117467833,0.997492433,-0.0170614123],"scale":[1.0,1.0,1.0],"name":"Cinema4D_Editor"},{"translation":[0.0,0.0,0.0],"rotation":[0.0,0.0,0.0,1.0],"scale":[1.0,1.0,1.0],"name":"Default light"}],"meshes":[{"primitives":[{"attributes":{"POSITION":1,"NORMAL":2,"TEXCOORD_0":3},"indices":0,"mode":4,"material":0}],"name":"Plane"},{"primitives":[{"attributes":{"POSITION":5,"NORMAL":6,"TEXCOORD_0":7},"indices":4,"mode":4,"material":1}],"name":"Relief"}],"accessors":[{"bufferView":0,"componentType":5123,"count":600,"type":"SCALAR","name":"accessorIndices"},{"bufferView":1,"componentType":5126,"count":600,"max":[4.99999952,4.99999952,7.62939436E-08],"min":[-4.99999952,-4.999999,0.0],"type":"VEC3","name":"accessorPositions"},{"bufferView":1,"byteOffset":7200,"componentType":5126,"count":600,"type":"VEC3","name":"accessorNormals"},{"bufferView":2,"componentType":5126,"count":600,"type":"VEC2","name":"accessorUVs"},{"bufferView":0,"byteOffset":1200,"componentType":5125,"count":3840000,"type":"SCALAR","name":"accessorIndices"},{"bufferView":1,"byteOffset":14400,"componentType":5126,"count":3840000,"max":[3.01778436,3.04218221,1.07591438],"min":[-3.01250553,-3.006421,-1.01833344],"type":"VEC3","name":"accessorPositions"},{"bufferView":1,"byteOffset":46094400,"componentType":5126,"count":3840000,"type":"VEC3","name":"accessorNormals"},{"bufferView":2,"byteOffset":4800,"componentType":5126,"count":3840000,"type":"VEC2","name":"accessorUVs"}],"bufferViews":[{"buffer":0,"byteLength":15361200,"name":"bufferViewScalar"},{"buffer":0,"byteOffset":15361200,"byteLength":92174400,"byteStride":12,"name":"bufferViewFloatVec3"},{"buffer":0,"byteOffset":107535600,"byteLength":30724800,"byteStride":8,"name":"bufferViewFloatVec2"}],"buffers":[{"uri":"terrain2gltf03.bin","byteLength":138260400}],"materials":[{"pbrMetallicRoughness":{"baseColorFactor":[0.5,0.5,0.5,1.0],"baseColorTexture":{"index":0,"texCoord":0},"metallicFactor":0.0,"roughnessFactor":0.7022211},"emissiveFactor":[0.0,0.0,0.0],"alphaMode":"OPAQUE","name":"water"},{"pbrMetallicRoughness":{"baseColorFactor":[0.5,0.5,0.5,1.0],"baseColorTexture":{"index":1,"texCoord":0},"metallicFactor":0.0,"roughnessFactor":0.7022211},"emissiveFactor":[0.0,0.0,0.0],"alphaMode":"OPAQUE","name":"_003"}],"textures":[{"sampler":0,"source":0,"name":"water.jpg"},{"sampler":0,"source":1,"name":"003.png"}],"images":[{"uri":"water.jpg"},{"uri":"003.png"}],"samplers":[{"magFilter":9729,"minFilter":9987,"wrapS":10497,"wrapT":10497}]}